<svg aria-hidden="true" style="position:absolute;width:0;height:0" xmlns="http://www.w3.org/2000/svg" overflow="hidden"><defs><symbol id="icon-1" viewBox="0 0 25 32"><path d="M16 0C7.165 0 0 7.165 0 16s7.165 16 16 16 16-7.165 16-16S24.835 0 16 0zm-4.649 24.188H7.454V12.465h3.897zM9.402 10.863h-.025c-1.308 0-2.153-.9-2.153-2.025 0-1.15.872-2.026 2.205-2.026s2.153.875 2.179 2.026c0 1.125-.846 2.025-2.205 2.025zm15.999 13.325h-3.896v-6.272c0-1.576-.564-2.651-1.974-2.651-1.076 0-1.718.725-1.999 1.425-.103.25-.128.601-.128.951v6.547h-3.896s.051-10.624 0-11.723h3.896v1.66c.518-.799 1.444-1.935 3.512-1.935 2.564 0 4.486 1.676 4.486 5.276z"/></symbol><symbol id="icon-2" viewBox="0 0 27 32"><path d="M16 0C7.165 0 0 7.165 0 16s7.165 16 16 16 16-7.165 16-16S24.835 0 16 0zm-4.649 24.188H7.454V12.465h3.897zM9.402 10.863h-.025c-1.308 0-2.153-.9-2.153-2.025 0-1.15.872-2.026 2.205-2.026s2.153.875 2.179 2.026c0 1.125-.846 2.025-2.205 2.025zm15.999 13.325h-3.896v-6.272c0-1.576-.564-2.651-1.974-2.651-1.076 0-1.718.725-1.999 1.425-.103.25-.128.601-.128.951v6.547h-3.896s.051-10.624 0-11.723h3.896v1.66c.518-.799 1.444-1.935 3.512-1.935 2.564 0 4.486 1.676 4.486 5.276z"/></symbol><symbol id="icon-3" viewBox="0 0 32 32"><path d="M16 0C7.165 0 0 7.165 0 16s7.165 16 16 16 16-7.165 16-16S24.835 0 16 0zm-4.649 24.188H7.454V12.465h3.897zM9.402 10.863h-.025c-1.308 0-2.153-.9-2.153-2.025 0-1.15.872-2.026 2.205-2.026s2.153.875 2.179 2.026c0 1.125-.846 2.025-2.205 2.025zm15.999 13.325h-3.896v-6.272c0-1.576-.564-2.651-1.974-2.651-1.076 0-1.718.725-1.999 1.425-.103.25-.128.601-.128.951v6.547h-3.896s.051-10.624 0-11.723h3.896v1.66c.518-.799 1.444-1.935 3.512-1.935 2.564 0 4.486 1.676 4.486 5.276z"/></symbol><symbol id="icon-4" viewBox="0 0 37 32"><path d="M16 0C7.165 0 0 7.165 0 16s7.165 16 16 16 16-7.165 16-16S24.835 0 16 0zm-4.649 24.188H7.454V12.465h3.897zM9.402 10.863h-.025c-1.308 0-2.153-.9-2.153-2.025 0-1.15.872-2.026 2.205-2.026s2.153.875 2.179 2.026c0 1.125-.846 2.025-2.205 2.025zm15.999 13.325h-3.896v-6.272c0-1.576-.564-2.651-1.974-2.651-1.076 0-1.718.725-1.999 1.425-.103.25-.128.601-.128.951v6.547h-3.896s.051-10.624 0-11.723h3.896v1.66c.518-.799 1.444-1.935 3.512-1.935 2.564 0 4.486 1.676 4.486 5.276z"/></symbol></defs></svg>