<svg aria-hidden="true" style="position:absolute;width:0;height:0" xmlns="http://www.w3.org/2000/svg" overflow="hidden"><defs><symbol id="icon-quill" viewBox="0 0 32 32"><path d="M0 32C4 20 14.469 0 32 0c-8.219 6.594-12 22-18 22H8L2 32H0z"/></symbol><symbol id="icon-dice" viewBox="0 0 32 32"><path d="M27 6H11c-2.75 0-5 2.25-5 5v16c0 2.75 2.25 5 5 5h16c2.75 0 5-2.25 5-5V11c0-2.75-2.25-5-5-5zM13 28a3 3 0 110-6 3 3 0 010 6zm0-12a3 3 0 110-6 3 3 0 010 6zm6 6a3 3 0 110-6 3 3 0 010 6zm6 6a3 3 0 110-6 3 3 0 010 6zm0-12a3 3 0 110-6 3 3 0 010 6zm.899-12C25.432 1.725 23.408 0 21 0H5C2.25 0 0 2.25 0 5v16c0 2.408 1.725 4.432 4 4.899V6c0-1.1.9-2 2-2h19.899z"/></symbol><symbol id="icon-mobile2" viewBox="0 0 32 32"><path d="M24 0H6C4.9 0 4 .9 4 2v28c0 1.1.9 2 2 2h18c1.1 0 2-.9 2-2V2c0-1.1-.9-2-2-2zm-9 30.556a1.556 1.556 0 110-3.113 1.556 1.556 0 010 3.113zM24 26H6V4h18v22z"/></symbol><symbol id="icon-heart" viewBox="0 0 32 32"><path d="M23.6 2c-3.363 0-6.258 2.736-7.599 5.594C14.659 4.736 11.764 2 8.4 2 3.763 2 0 5.764 0 10.401c0 9.433 9.516 11.906 16.001 21.232C22.131 22.365 32 19.533 32 10.401 32 5.764 28.237 2 23.6 2z"/></symbol><symbol id="icon-radio-checked" viewBox="0 0 32 32"><path d="M16 0C7.163 0 0 7.163 0 16s7.163 16 16 16 16-7.163 16-16S24.837 0 16 0zm0 28C9.373 28 4 22.627 4 16S9.373 4 16 4s12 5.373 12 12-5.373 12-12 12zm-6-12a6 6 0 1112 0 6 6 0 01-12 0z"/></symbol></defs></svg>